<svg viewBox="0 0 120 150" fill="none" xmlns="http://www.w3.org/2000/svg">
  <!-- Box body -->
  <rect x="12" y="48" width="96" height="80" rx="3" stroke="#1a1a1a" stroke-width="2.5" fill="white"/>
  <!-- Box center seam -->
  <line x1="60" y1="48" x2="60" y2="128" stroke="#1a1a1a" stroke-width="1.5"/>
  <!-- Box top horizontal line -->
  <line x1="12" y1="68" x2="108" y2="68" stroke="#1a1a1a" stroke-width="1.5"/>

  <!-- Left flap (open, tilted) -->
  <path d="M12 48 L18 20 L60 20 L60 48" stroke="#1a1a1a" stroke-width="2.5" stroke-linejoin="round" fill="white"/>
  <!-- Right flap (open, tilted other way) -->
  <path d="M60 48 L60 20 L102 20 L108 48" stroke="#1a1a1a" stroke-width="2.5" stroke-linejoin="round" fill="white"/>

  <!-- Left eye (white sclera + pupil) -->
  <circle cx="38" cy="90" r="14" stroke="#1a1a1a" stroke-width="2" fill="white"/>
  <circle cx="38" cy="90" r="6" fill="#1a1a1a"/>
  <circle cx="41" cy="87" r="2" fill="white"/>

  <!-- Right eye -->
  <circle cx="82" cy="90" r="14" stroke="#1a1a1a" stroke-width="2" fill="white"/>
  <circle cx="82" cy="90" r="6" fill="#1a1a1a"/>
  <circle cx="85" cy="87" r="2" fill="white"/>

  <!-- Left leg -->
  <path d="M32 128 L32 142" stroke="#1a1a1a" stroke-width="3" stroke-linecap="round"/>
  <!-- Left foot -->
  <path d="M25 142 Q32 138 39 142" stroke="#1a1a1a" stroke-width="2.5" stroke-linecap="round"/>

  <!-- Right leg -->
  <path d="M88 128 L88 142" stroke="#1a1a1a" stroke-width="3" stroke-linecap="round"/>
  <!-- Right foot -->
  <path d="M81 142 Q88 138 95 142" stroke="#1a1a1a" stroke-width="2.5" stroke-linecap="round"/>
</svg>
