<svg viewBox="0 0 110 110" fill="none" xmlns="http://www.w3.org/2000/svg">
  <!-- Central gift box -->
  <rect x="32" y="52" width="46" height="40" rx="2" stroke="#1a1a1a" stroke-width="2.5" fill="white"/>
  <!-- Gift lid -->
  <rect x="28" y="44" width="54" height="12" rx="2" stroke="#1a1a1a" stroke-width="2.5" fill="white"/>
  <!-- Ribbon vertical -->
  <line x1="55" y1="44" x2="55" y2="92" stroke="#1a1a1a" stroke-width="2"/>
  <!-- Ribbon horizontal -->
  <line x1="32" y1="58" x2="78" y2="58" stroke="#1a1a1a" stroke-width="2"/>
  <!-- Bow left loop -->
  <path d="M55 44 C46 36 36 36 38 30 C40 24 50 28 55 36" stroke="#1a1a1a" stroke-width="2" fill="none" stroke-linecap="round"/>
  <!-- Bow right loop -->
  <path d="M55 44 C64 36 74 36 72 30 C70 24 60 28 55 36" stroke="#1a1a1a" stroke-width="2" fill="none" stroke-linecap="round"/>
  <!-- Sparkle top left -->
  <path d="M16 22 L18 16 L20 22 L26 24 L20 26 L18 32 L16 26 L10 24 Z" stroke="#1a1a1a" stroke-width="1.5" fill="none" stroke-linejoin="round"/>
  <!-- Sparkle top right -->
  <path d="M82 14 L84 10 L86 14 L90 16 L86 18 L84 22 L82 18 L78 16 Z" stroke="#1a1a1a" stroke-width="1.5" fill="none" stroke-linejoin="round"/>
  <!-- Small star bottom right -->
  <path d="M90 70 L91 67 L92 70 L95 71 L92 72 L91 75 L90 72 L87 71 Z" stroke="#1a1a1a" stroke-width="1.5" fill="none" stroke-linejoin="round"/>
  <!-- Small dots -->
  <circle cx="20" cy="68" r="2" fill="#1a1a1a"/>
  <circle cx="14" cy="48" r="1.5" fill="#1a1a1a"/>
  <circle cx="96" cy="46" r="1.5" fill="#1a1a1a"/>
</svg>
